<svg width="237" height="184" viewBox="0 0 237 184" fill="none" xmlns="http://www.w3.org/2000/svg">
<g clip-path="url(#clip0_3502_13127)">
<path d="M69.4678 173.394C70.3723 174.213 71.4829 174.796 72.6925 175.087C73.9021 175.378 75.17 175.368 76.374 175.056C79.4599 174.221 81.5541 171.568 83.4129 169.077L88.9129 161.709L84.2777 162.519C80.9442 163.101 77.5283 163.713 74.6253 165.379C71.7223 167.046 69.3972 170.022 69.581 173.247" fill="#E6E6E6"/>
<path d="M65.159 183.319C65.9718 180.678 66.7894 178 68.2247 175.593C69.4994 173.455 71.241 171.579 73.5388 170.413C74.7576 169.796 76.08 169.386 77.4466 169.201C77.8031 169.153 77.8611 169.682 77.5064 169.73C75.1403 170.052 72.9427 171.082 71.2303 172.671C69.3322 174.441 68.0872 176.723 67.1667 179.071C66.6093 180.491 66.1596 181.946 65.7121 183.401C65.6988 183.469 65.6584 183.531 65.5992 183.572C65.5401 183.614 65.4665 183.632 65.3937 183.623C65.3207 183.612 65.2552 183.574 65.2115 183.517C65.1678 183.46 65.1494 183.389 65.1603 183.32L65.159 183.319Z" fill="#F2F2F2"/>
<path d="M154.667 76.9342C155.196 76.8128 155.745 76.8034 156.278 76.9064C156.811 77.0095 157.313 77.2226 157.75 77.5307C158.187 77.8388 158.547 78.2344 158.806 78.6897C159.065 79.145 159.216 79.6488 159.249 80.1658L171.965 83.5725L166.777 87.8553L155.496 83.9636C154.581 83.9581 153.7 83.6331 153.02 83.0499C152.34 82.4668 151.908 81.6662 151.806 80.7997C151.703 79.9332 151.938 79.0612 152.466 78.3487C152.993 77.6363 153.777 77.133 154.667 76.9342L154.667 76.9342Z" fill="#FFB7B7"/>
<path d="M187.345 180.125L183.638 180.124L181.875 166.499L187.346 166.499L187.345 180.125Z" fill="#FFB7B7"/>
<path d="M188.29 183.549L176.338 183.548V183.404C176.338 182.228 176.828 181.101 177.701 180.27C178.573 179.438 179.756 178.971 180.99 178.971H180.99L188.29 178.971L188.29 183.549Z" fill="#2F2E41"/>
<path d="M209.065 180.125L205.358 180.124L203.595 166.499L209.065 166.499L209.065 180.125Z" fill="#FFB7B7"/>
<path d="M210.011 183.549L198.059 183.548V183.404C198.059 182.228 198.549 181.101 199.421 180.269C200.294 179.438 201.477 178.971 202.711 178.971H202.711L210.011 178.971L210.011 183.549Z" fill="#2F2E41"/>
<path d="M184.317 101.922L178.856 137.964L180.217 175.939L188.416 176.561L190.98 142.505L197.507 123.516L201.344 150.585L201.501 175.939L209.968 176.561L212.921 123.258L210.749 100.077L184.317 101.922Z" fill="#2F2E41"/>
<path d="M200.108 53.6654C204.879 53.6654 208.746 49.9799 208.746 45.4336C208.746 40.8873 204.879 37.2018 200.108 37.2018C195.338 37.2018 191.471 40.8873 191.471 45.4336C191.471 49.9799 195.338 53.6654 200.108 53.6654Z" fill="#FFB7B7"/>
<path d="M194.785 58.1429L185.249 103.926C185.249 103.926 201.304 108.317 208.337 104.263C215.371 100.209 212.219 87.6942 212.219 87.6942L210.931 66.3994L208.55 61.0143L206.531 56.569L194.785 58.1429Z" fill="#CBCBCB"/>
<path d="M191.993 90.6406L195.287 57.2541L192.653 59.087L183.442 61.9379L182.811 85.4432L176.368 116.353C176.368 116.353 180.974 124.918 186.681 110.749L191.993 90.6406Z" fill="#2F2E41"/>
<path d="M187.875 65.4533L183.442 61.9377L173.479 82.5632L162.361 80.2424L161.836 86.4998L177.944 92.575L188.921 78.0115L187.875 65.4533Z" fill="#2F2E41"/>
<path d="M205.12 83.3328L206.362 56.1608L210.93 59.5326L219.09 61.7L217.894 83.3328L219.615 116.9L211.061 119.482L208.66 98.301L205.12 83.3328Z" fill="#2F2E41"/>
<path d="M205.669 105.206C205.765 104.696 205.977 104.213 206.29 103.789C206.603 103.366 207.009 103.013 207.481 102.756C207.953 102.498 208.478 102.343 209.019 102.3C209.561 102.257 210.106 102.327 210.615 102.506L218.999 92.7781L221.029 99.0272L212.757 107.307C212.384 108.104 211.717 108.742 210.884 109.101C210.05 109.46 209.107 109.516 208.233 109.257C207.36 108.998 206.616 108.442 206.144 107.696C205.671 106.949 205.502 106.063 205.669 105.206V105.206Z" fill="#FFB7B7"/>
<path d="M213.627 64.7162L219.09 61.7L232.836 87.5691L219.434 105.304L211.79 99.4797L221.072 87.9446L212.612 75.5549L213.627 64.7162Z" fill="#2F2E41"/>
<path d="M208.233 38.8527L208.652 38.0495L206.545 37.0518C206.545 37.0518 204.22 33.4475 200.014 34.4604C195.808 35.4733 193.916 36.0795 193.916 36.0795L191.814 37.0873L192.869 38.0875L190.976 38.6937L192.241 39.2923L190.77 40.0981L191.561 44.2286C191.561 44.2286 192.877 41.0958 195.405 42.293C197.933 43.4902 202.558 41.6741 202.558 41.6741L206.576 49.0848C206.576 49.0848 207.405 46.487 208.883 47.1797C208.883 47.1797 212.659 41.4492 208.233 38.8527Z" fill="#2F2E41"/>
<path d="M155.765 50.9297H155.709L124.032 63.8202L80.6914 81.4573C80.522 81.5252 80.3403 81.5606 80.1566 81.5615C79.9729 81.5624 79.7907 81.5288 79.6207 81.4626L34.9057 63.7834L2.4504 50.9507L2.40082 50.9297H2.34557C1.83348 50.9302 1.34252 51.1243 0.980417 51.4694C0.618313 51.8145 0.414633 52.2824 0.414062 52.7704V132.712C0.414634 133.2 0.618313 133.668 0.980417 134.013C1.34252 134.358 1.83348 134.552 2.34557 134.553H155.765C156.277 134.552 156.768 134.358 157.13 134.013C157.492 133.668 157.695 133.2 157.696 132.712V52.7704C157.695 52.2824 157.492 51.8145 157.13 51.4694C156.768 51.1243 156.277 50.9302 155.765 50.9297Z" fill="white"/>
<path d="M155.903 51.4557C155.846 51.4557 155.791 51.4392 155.745 51.4085L79.4332 0.760507C79.201 0.60709 78.925 0.5251 78.6425 0.525559C78.3599 0.526018 78.0842 0.608902 77.8525 0.763073L2.09042 51.408C2.03049 51.448 1.95638 51.4636 1.88435 51.4515C1.81233 51.4394 1.74829 51.4006 1.70629 51.3435C1.66429 51.2865 1.64778 51.2158 1.66037 51.1472C1.67297 51.0785 1.71364 51.0174 1.77346 50.9773L77.5357 0.332434C77.86 0.116632 78.246 0.000622065 78.6416 2.4947e-06C79.0372 -0.000617075 79.4235 0.114182 79.7487 0.328967L156.06 50.9768C156.109 51.0089 156.145 51.0547 156.164 51.1077C156.183 51.1607 156.184 51.2181 156.166 51.2715C156.148 51.3249 156.113 51.3716 156.066 51.4047C156.019 51.4378 155.961 51.4557 155.903 51.4556L155.903 51.4557Z" fill="#3F3D56"/>
<path d="M6.41895 53.251L78.7167 2.18762L151.563 56.8844L82.4416 95.9346L44.9148 87.7828L6.41895 53.251Z" fill="#E6E6E6"/>
<path d="M48.0827 120.054H12.3658C12.1465 120.055 11.9292 120.014 11.7263 119.935C11.5235 119.855 11.3391 119.739 11.1837 119.591C11.0283 119.444 10.9049 119.268 10.8206 119.075C10.7363 118.882 10.6927 118.676 10.6924 118.466C10.6921 118.257 10.735 118.05 10.8187 117.857C10.9024 117.664 11.0252 117.488 11.1802 117.341C11.3352 117.193 11.5192 117.075 11.7218 116.995C11.9244 116.915 12.1415 116.874 12.3609 116.874H48.0827C48.302 116.873 48.5193 116.914 48.7222 116.993C48.925 117.073 49.1094 117.19 49.2648 117.337C49.4202 117.485 49.5436 117.66 49.6279 117.853C49.7122 118.046 49.7558 118.253 49.7561 118.462C49.7564 118.671 49.7135 118.878 49.6298 119.071C49.5461 119.264 49.4233 119.44 49.2683 119.588C49.1133 119.736 48.9293 119.853 48.7267 119.933C48.5241 120.013 48.307 120.054 48.0876 120.054H48.0827Z" fill="#CC3466"/>
<path d="M25.1802 113.217H12.3658C12.1465 113.218 11.9292 113.177 11.7263 113.098C11.5235 113.018 11.3391 112.901 11.1837 112.754C11.0283 112.607 10.9049 112.431 10.8206 112.238C10.7363 112.045 10.6927 111.838 10.6924 111.629C10.6921 111.42 10.735 111.213 10.8187 111.02C10.9024 110.827 11.0252 110.651 11.1802 110.504C11.3352 110.356 11.5192 110.238 11.7218 110.158C11.9244 110.078 12.1415 110.037 12.3609 110.037H25.1802C25.6224 110.037 26.0465 110.204 26.3594 110.502C26.6723 110.799 26.8485 111.203 26.8491 111.625C26.8498 112.046 26.6749 112.451 26.3629 112.749C26.0509 113.048 25.6273 113.216 25.1852 113.217H25.1802Z" fill="#CC3466"/>
<path d="M79.7335 81.6926C79.462 81.6929 79.1931 81.6427 78.9418 81.5448L34.3535 63.9133V8.72375C34.3541 8.23573 34.5578 7.76786 34.9199 7.42278C35.282 7.07769 35.7729 6.88357 36.285 6.883H121.824C122.336 6.88357 122.827 7.07769 123.19 7.42278C123.552 7.76786 123.755 8.23573 123.756 8.72375V63.9518L123.672 63.986L80.5491 81.5362C80.2909 81.6396 80.0136 81.6928 79.7335 81.6926Z" fill="#CC3466"/>
<path d="M155.35 50.9297H155.295L123.618 63.8202L80.2773 81.4573C80.108 81.5252 79.9262 81.5606 79.7425 81.5615C79.5588 81.5624 79.3767 81.5288 79.2066 81.4626L34.4917 63.7834L2.03637 50.9507L1.98679 50.9297H1.93151C1.41941 50.9302 0.92846 51.1243 0.566355 51.4694C0.20425 51.8145 0.000569519 52.2824 0 52.7704V132.712C0.000569521 133.2 0.20425 133.668 0.566355 134.013C0.92846 134.358 1.41941 134.552 1.93151 134.553H155.35C155.863 134.552 156.354 134.358 156.716 134.013C157.078 133.668 157.281 133.2 157.282 132.712V52.7704C157.281 52.2824 157.078 51.8145 156.716 51.4694C156.354 51.1243 155.863 50.9302 155.35 50.9297ZM156.73 132.712C156.73 133.061 156.585 133.395 156.326 133.641C156.067 133.888 155.716 134.027 155.35 134.027H1.93151C1.56564 134.027 1.2148 133.888 0.956095 133.641C0.697387 133.395 0.55198 133.061 0.551834 132.712V52.7704C0.552335 52.4304 0.690728 52.1038 0.938081 51.8587C1.18543 51.6137 1.5226 51.4693 1.8791 51.4556L34.4917 64.3514L78.9943 81.9491C79.476 82.1359 80.0158 82.133 80.4953 81.9412L123.618 64.3909L155.406 51.4556C155.762 51.4703 156.098 51.6151 156.345 51.86C156.591 52.1049 156.729 52.431 156.73 52.7705L156.73 132.712Z" fill="#3F3D56"/>
<path d="M72.7917 27.513H42.439C41.8542 27.5121 41.2937 27.29 40.8806 26.8956C40.4674 26.5012 40.2354 25.9666 40.2354 25.4093C40.2354 24.852 40.4674 24.3175 40.8806 23.9231C41.2937 23.5286 41.8542 23.3066 42.439 23.3056H72.7917C73.3764 23.3066 73.9369 23.5286 74.3501 23.9231C74.7632 24.3175 74.9953 24.852 74.9953 25.4093C74.9953 25.9666 74.7632 26.5012 74.3501 26.8956C73.9369 27.29 73.3764 27.5121 72.7917 27.513Z" fill="white"/>
<path d="M57.0644 18.5722H42.4399C41.8544 18.5722 41.2929 18.3505 40.879 17.956C40.465 17.5615 40.2324 17.0264 40.2324 16.4685C40.2324 15.9105 40.465 15.3754 40.879 14.9809C41.2929 14.5864 41.8544 14.3647 42.4399 14.3647H57.0644C57.6498 14.3647 58.2113 14.5864 58.6253 14.9809C59.0392 15.3754 59.2718 15.9105 59.2718 16.4685C59.2718 17.0264 59.0392 17.5615 58.6253 17.956C58.2113 18.3505 57.6498 18.5722 57.0644 18.5722Z" fill="white"/>
<path d="M101.757 48.5503H55.3998C54.8144 48.5503 54.2529 48.3286 53.8389 47.9341C53.4249 47.5396 53.1924 47.0045 53.1924 46.4466C53.1924 45.8886 53.4249 45.3535 53.8389 44.959C54.2529 44.5645 54.8144 44.3428 55.3998 44.3428H101.757C102.342 44.3428 102.904 44.5645 103.318 44.959C103.732 45.3535 103.964 45.8886 103.964 46.4466C103.964 47.0045 103.732 47.5396 103.318 47.9341C102.904 48.3286 102.342 48.5503 101.757 48.5503Z" fill="white"/>
<path d="M101.757 58.28H55.3998C55.1096 58.2804 54.8221 58.2264 54.5539 58.1209C54.2856 58.0154 54.0418 57.8605 53.8364 57.6651C53.631 57.4697 53.4681 57.2376 53.3569 56.9821C53.2457 56.7267 53.1885 56.4528 53.1885 56.1762C53.1885 55.8997 53.2457 55.6258 53.3569 55.3703C53.4681 55.1149 53.631 54.8828 53.8364 54.6874C54.0418 54.492 54.2856 54.3371 54.5539 54.2316C54.8221 54.1261 55.1096 54.072 55.3998 54.0725H101.757C102.047 54.072 102.334 54.1261 102.603 54.2316C102.871 54.3371 103.115 54.492 103.32 54.6874C103.525 54.8828 103.688 55.1149 103.8 55.3703C103.911 55.6258 103.968 55.8997 103.968 56.1762C103.968 56.4528 103.911 56.7267 103.8 56.9821C103.688 57.2376 103.525 57.4697 103.32 57.6651C103.115 57.8605 102.871 58.0154 102.603 58.1209C102.334 58.2264 102.047 58.2804 101.757 58.28Z" fill="white"/>
<path d="M236.664 183.881H148.102C148.013 183.881 147.927 183.847 147.864 183.787C147.801 183.727 147.766 183.645 147.766 183.56C147.766 183.475 147.801 183.393 147.864 183.333C147.927 183.273 148.013 183.239 148.102 183.239H236.664C236.753 183.239 236.839 183.273 236.902 183.333C236.965 183.393 237 183.475 237 183.56C237 183.645 236.965 183.727 236.902 183.787C236.839 183.847 236.753 183.881 236.664 183.881Z" fill="#CBCBCB"/>
<path d="M82.1016 183.881H49.4383C49.349 183.881 49.2633 183.847 49.2002 183.787C49.137 183.727 49.1016 183.645 49.1016 183.56C49.1016 183.475 49.137 183.393 49.2002 183.333C49.2633 183.273 49.349 183.239 49.4383 183.239H82.1016C82.1909 183.239 82.2766 183.273 82.3397 183.333C82.4029 183.393 82.4383 183.475 82.4383 183.56C82.4383 183.645 82.4029 183.727 82.3397 183.787C82.2766 183.847 82.1909 183.881 82.1016 183.881Z" fill="#CBCBCB"/>
<path d="M61.4489 173.959C62.6962 173.932 63.915 173.599 64.9881 172.993C66.0611 172.386 66.9522 171.526 67.5754 170.496C69.1457 167.831 68.6674 164.542 68.1417 161.526L66.5897 152.606L63.9025 156.295C61.9698 158.949 60.0004 161.678 59.1754 164.81C58.3504 167.943 58.9035 171.615 61.4201 173.779" fill="#E6E6E6"/>
<path d="M65.7379 183.892C64.3597 181.473 62.9582 179.025 62.1944 176.353C61.5163 173.981 61.3632 171.48 62.1294 169.109C62.5367 167.852 63.171 166.673 64.0037 165.624C64.2209 165.35 64.6532 165.686 64.4373 165.959C62.998 167.777 62.2019 169.984 62.1637 172.262C62.1275 174.792 62.9331 177.247 64.0182 179.531C64.6737 180.912 65.4312 182.246 66.1902 183.578C66.2317 183.636 66.2484 183.706 66.2371 183.775C66.2257 183.844 66.187 183.907 66.129 183.949C66.0691 183.991 65.9945 184.008 65.9214 183.997C65.8484 183.986 65.7829 183.948 65.739 183.891L65.7379 183.892Z" fill="#F2F2F2"/>
</g>
<defs>
<clipPath id="clip0_3502_13127">
<rect width="237" height="184" fill="white"/>
</clipPath>
</defs>
</svg>
